<?xml version="1.0" encoding="utf-8"?>
<!-- Generator: Adobe Illustrator 28.0.0, SVG Export Plug-In . SVG Version: 6.00 Build 0)  -->
<svg version="1.1" id="Layer_1" xmlns="http://www.w3.org/2000/svg" xmlns:xlink="http://www.w3.org/1999/xlink" x="0px" y="0px"
	 viewBox="0 0 598.5 48.8" style="enable-background:new 0 0 598.5 48.8;" xml:space="preserve">
<style type="text/css">
	.st0{fill-rule:evenodd;clip-rule:evenodd;fill:#4414F5;}
	.st1{fill:#4414F5;}
</style>
<g id="Grupo_551" transform="translate(921.197 1749.604)">
	<g id="Grupo_545" transform="translate(124.943 0.009)">
		<g id="Grupo_542">
			<path id="Trazado_3026" class="st0" d="M-921.2-1704v-15l9,3.9v11.1H-921.2z M-887.3-1733.2c0,8.9-6.3,14.2-17.7,14.2h-16.3
				v-28.4h16.3C-893.6-1747.4-887.3-1742.1-887.3-1733.2L-887.3-1733.2z M-896.6-1733.2c0-4.3-2.9-6.7-8.2-6.7h-7.4v13.3h7.4
				C-899.4-1726.5-896.6-1728.9-896.6-1733.2L-896.6-1733.2z"/>
		</g>
		<g id="Grupo_543" transform="translate(38.415 11.934)">
			<path id="Trazado_3027" class="st0" d="M-912.5-1737.1c-0.2-5.5,4-10.1,9.5-10.3c0.3,0,0.6,0,0.8,0v8.6h-2.2
				c-5.4,0-8.1,1.8-8.1,7.1v16.1h-8.7v-31h8.7V-1737.1z"/>
		</g>
		<g id="Grupo_544" transform="translate(59.841 11.934)">
			<path id="Trazado_3028" class="st0" d="M-921.2-1731.2c0-9.5,6.2-16.2,16.2-16.2s16.2,6.7,16.2,16.2c0,9.5-6.2,16.2-16.2,16.2
				S-921.2-1721.7-921.2-1731.2 M-897.8-1731.2c0-6.3-2.5-10.3-7.3-10.3s-7.3,3.9-7.3,10.3c0,6.3,2.5,10.2,7.3,10.2
				S-897.8-1724.9-897.8-1731.2"/>
		</g>
	</g>
	<g id="Grupo_546" transform="translate(79.562 34.464)">
		<rect id="Rectángulo_994" x="-921.2" y="-1747.4" class="st1" width="33.9" height="9"/>
	</g>
	<g id="Grupo_549" transform="translate(0 0.009)">
		<g id="Grupo_547">
			<path id="Trazado_3029" class="st0" d="M-885.9-1716.1c0,7.5-5.9,12.1-17.2,12.1h-18.1v-43.5h17.9c11.3,0,15.9,5.3,15.9,11.4
				c0,5.9-4.6,9-10.7,9.8C-890.7-1725.8-885.9-1722.6-885.9-1716.1 M-912.2-1739.9v9.8h9.2c3.9,0,6.2-1.5,6.2-4.9s-2.3-5-6.2-5
				L-912.2-1739.9z M-902.6-1711.5c4.9,0,7.3-2,7.3-5.5s-2.5-5.5-7.3-5.5h-18.6l9,3.9v7H-902.6z"/>
		</g>
		<g id="Grupo_548" transform="translate(39.445 11.72)">
			<path id="Trazado_3030" class="st0" d="M-899.3-1724.7c-1.1,2.4-2.7,3.7-6,3.7c-3.6,0-6.3-2.5-6.9-7.7h22.4
				c0.1-0.8,0.2-1.6,0.2-2.5c0-9.8-6.1-16.4-15.7-16.4c-9.4,0-15.8,6.6-15.8,16.2s6.1,16.2,15.8,16.2c7.4,0,12.8-3.2,14.9-9.7
				H-899.3z M-905.4-1741.5c3.7,0,6.3,2.9,6.7,7.3h-13.5C-911.5-1739.1-908.9-1741.5-905.4-1741.5L-905.4-1741.5z"/>
		</g>
	</g>
	<g id="Grupo_550" transform="translate(232.301)">
		<path id="Trazado_3031" class="st1" d="M-912.7-1739.9c0,1.8-1.4,2.9-4.1,2.9h-4.3v-10.4h4.3c2.7,0,3.8,1.3,3.8,2.7
			c0,1.4-1.1,2.2-2.6,2.3C-913.9-1742.2-912.7-1741.5-912.7-1739.9z M-919-1745.6v2.4h2.2c0.9,0,1.5-0.4,1.5-1.2s-0.5-1.2-1.5-1.2
			L-919-1745.6z M-916.7-1738.8c1.2,0,1.8-0.5,1.8-1.3s-0.6-1.3-1.8-1.3h-2.3v2.6H-916.7z"/>
		<path id="Trazado_3032" class="st1" d="M-904.6-1741.7v4.7h-2.1v-1.4c-0.4,1-1.4,1.6-2.5,1.6c-1.3,0.1-2.5-0.9-2.6-2.3
			c0,0,0-0.1,0-0.1c0-1.7,1.6-2.1,3.1-2.3l2-0.2v-0.1c0-0.8-0.6-1.4-1.4-1.3c-0.6,0-1.1,0.4-1.3,1h-2.1c0.2-1.5,1.6-2.4,3.5-2.4
			C-905.7-1744.6-904.6-1743.4-904.6-1741.7z M-906.7-1740.2v-0.3l-1.2,0.1c-0.9,0.1-1.7,0.2-1.7,1.1c0,0.6,0.5,1.2,1.2,1.2
			c0,0,0.1,0,0.1,0C-907.2-1738.1-906.7-1739-906.7-1740.2L-906.7-1740.2z"/>
		<path id="Trazado_3033" class="st1" d="M-900.8-1742.5c0.2-1.2,1.2-2.1,2.5-2.1v2.1h-0.5c-1.3,0-1.9,0.4-1.9,1.7v3.9h-2.1v-7.4
			h2.1V-1742.5z"/>
		<path id="Trazado_3034" class="st1" d="M-897.6-1740.7c-0.1-2,1.4-3.8,3.5-3.9c0.1,0,0.3,0,0.4,0c1.8-0.1,3.3,1.1,3.6,2.8h-2.1
			c-0.1-0.8-0.7-1.4-1.5-1.4c-1.1,0-1.7,0.9-1.7,2.5c0,1.6,0.6,2.5,1.7,2.5c0.8,0,1.5-0.6,1.6-1.4h2.1c-0.3,1.7-1.9,3-3.7,2.8
			c-2,0.1-3.7-1.4-3.9-3.5C-897.6-1740.4-897.6-1740.6-897.6-1740.7z"/>
		<path id="Trazado_3035" class="st1" d="M-881.7-1740.1h-5.4c0.2,1.2,0.8,1.8,1.7,1.8c0.6,0.1,1.3-0.3,1.5-0.9h2.1
			c-0.5,1.5-2,2.5-3.6,2.4c-2.1,0.1-3.9-1.6-4-3.8c-0.1-2.1,1.6-3.9,3.8-4c2.1-0.1,3.9,1.6,4,3.8c0,0.1,0,0.1,0,0.2
			C-881.7-1740.5-881.7-1740.3-881.7-1740.1z M-887.1-1741.5h3.3c0-0.9-0.7-1.7-1.6-1.7c0,0,0,0,0,0
			C-886.3-1743.2-886.9-1742.6-887.1-1741.5L-887.1-1741.5z"/>
		<path id="Trazado_3036" class="st1" d="M-880.3-1737v-10.4h2.1v10.4H-880.3z"/>
		<path id="Trazado_3037" class="st1" d="M-876.8-1740.7c0-2.1,1.7-3.9,3.9-3.9s3.9,1.7,3.9,3.9c0,2.1-1.7,3.9-3.9,3.9
			c-2,0.1-3.8-1.4-3.9-3.4C-876.8-1740.4-876.8-1740.6-876.8-1740.7z M-871.2-1740.7c0-1.5-0.6-2.5-1.7-2.5s-1.7,0.9-1.7,2.5
			s0.6,2.5,1.7,2.5S-871.2-1739.2-871.2-1740.7z"/>
		<path id="Trazado_3038" class="st1" d="M-860.8-1741.7v4.7h-2.1v-4.3c0-1.3-0.5-1.9-1.4-1.9s-1.4,0.6-1.4,1.9v4.2h-2.1v-7.4h2.1
			v1.5c0.3-1,1.3-1.7,2.4-1.7C-861.5-1744.6-860.8-1743.4-860.8-1741.7z"/>
		<path id="Trazado_3039" class="st1" d="M-852.3-1741.7v4.7h-2.1v-1.4c-0.4,1-1.4,1.6-2.5,1.6c-1.3,0.1-2.5-0.9-2.6-2.3
			c0,0,0-0.1,0-0.1c0-1.7,1.6-2.1,3.1-2.3l2-0.2v-0.1c0-0.8-0.6-1.4-1.4-1.3c-0.6,0-1.1,0.4-1.3,1h-2.1c0.2-1.5,1.6-2.4,3.5-2.4
			C-853.4-1744.6-852.3-1743.4-852.3-1741.7z M-854.4-1740.2v-0.3l-1.2,0.1c-0.8,0.1-1.7,0.2-1.7,1.1c0,0.6,0.5,1.2,1.2,1.2
			c0,0,0.1,0,0.1,0C-855-1738.1-854.4-1739-854.4-1740.2L-854.4-1740.2z"/>
		<path id="Trazado_3040" class="st1" d="M-919-1722.3h5.1v1.8h-7.3v-10.4h7.2v1.8h-5v2.4h4.9v1.8h-4.9L-919-1722.3z"/>
		<path id="Trazado_3041" class="st1" d="M-905.4-1725.2v4.7h-2.1v-4.3c0-1.3-0.5-1.9-1.4-1.9s-1.4,0.6-1.4,1.9v4.2h-2.1v-7.4h2.1
			v1.5c0.3-1,1.3-1.7,2.4-1.7C-906.1-1728.1-905.4-1726.9-905.4-1725.2z"/>
		<path id="Trazado_3042" class="st1" d="M-904.2-1722.8h2.1c0.1,0.7,0.8,1.1,1.4,1c0.9,0,1.4-0.3,1.4-0.8c0-0.5-0.3-0.7-1.3-0.9
			l-1.3-0.3c-1.4-0.3-2.2-1-2.2-2.1c0-1.4,1.5-2.3,3.2-2.3c1.7,0,3.1,0.7,3.4,2.1h-2.1c-0.2-0.5-0.8-0.8-1.3-0.7
			c-0.7,0-1.2,0.2-1.2,0.7c0,0.4,0.4,0.6,1.2,0.8l1.3,0.3c1.6,0.3,2.3,1,2.3,2.2c0,1.5-1.5,2.4-3.5,2.4
			C-902.5-1720.4-903.9-1721.1-904.2-1722.8z"/>
		<path id="Trazado_3043" class="st1" d="M-888.8-1723.6h-5.4c0.2,1.2,0.8,1.8,1.7,1.8c0.6,0.1,1.3-0.3,1.5-0.9h2.1
			c-0.5,1.5-2,2.5-3.6,2.4c-2.1,0.1-3.9-1.6-4-3.8c-0.1-2.1,1.6-3.9,3.8-4c2.1-0.1,3.9,1.6,4,3.8c0,0.1,0,0.1,0,0.2
			C-888.7-1724-888.7-1723.8-888.8-1723.6z M-894.1-1725h3.3c0-0.9-0.7-1.7-1.6-1.7c0,0,0,0,0,0
			C-893.3-1726.7-893.9-1726.2-894.1-1725L-894.1-1725z"/>
		<path id="Trazado_3044" class="st1" d="M-880.4-1725.2v4.7h-2.1v-4.3c0-1.3-0.5-1.9-1.4-1.9s-1.4,0.6-1.4,1.9v4.2h-2.1v-7.4h2.1
			v1.5c0.3-1,1.3-1.7,2.4-1.7C-881.2-1728.1-880.4-1726.9-880.4-1725.2z"/>
		<path id="Trazado_3045" class="st1" d="M-873.7-1728h2.2l-2.9,10.1h-2.2l1-3.5h-1.8l-2.2-6.7h2.1l2,6.3L-873.7-1728z"/>
		<path id="Trazado_3046" class="st1" d="M-863.7-1725.2v4.7h-2.1v-1.4c-0.4,1-1.4,1.6-2.5,1.6c-1.3,0.1-2.5-0.9-2.6-2.3
			c0,0,0-0.1,0-0.1c0-1.7,1.6-2.1,3.1-2.3l2-0.2v-0.1c0-0.8-0.6-1.4-1.4-1.3c-0.6,0-1.1,0.4-1.3,1h-2.1c0.2-1.5,1.6-2.4,3.5-2.4
			C-864.8-1728.1-863.7-1726.9-863.7-1725.2z M-865.8-1723.7v-0.3l-1.2,0.1c-0.9,0.1-1.7,0.2-1.7,1.1c0,0.6,0.5,1.2,1.2,1.2
			c0,0,0.1,0,0.1,0C-866.4-1721.6-865.8-1722.5-865.8-1723.7L-865.8-1723.7z"/>
		<path id="Trazado_3047" class="st1" d="M-850.7-1725.2v4.7h-2.1v-4.3c0-1.3-0.4-1.9-1.3-1.9s-1.3,0.6-1.3,1.9v4.2h-2.1v-4.3
			c0-1.3-0.4-1.9-1.3-1.9s-1.3,0.6-1.3,1.9v4.2h-2.1v-7.4h2.1v1.5c0.3-1,1.2-1.7,2.3-1.7c1.1,0,2,0.7,2.3,1.8
			c0.3-1.1,1.2-1.8,2.3-1.8C-851.4-1728.1-850.7-1726.9-850.7-1725.2z"/>
		<path id="Trazado_3048" class="st1" d="M-841.9-1723.6h-5.4c0.2,1.2,0.8,1.8,1.7,1.8c0.6,0.1,1.3-0.3,1.5-0.9h2.1
			c-0.5,1.5-2,2.5-3.6,2.4c-2.1,0.1-3.9-1.6-4-3.8c-0.1-2.1,1.6-3.9,3.8-4c2.1-0.1,3.9,1.6,4,3.8c0,0.1,0,0.1,0,0.2
			C-841.8-1724-841.8-1723.8-841.9-1723.6z M-847.2-1725h3.3c0-0.9-0.7-1.7-1.6-1.7c0,0,0,0,0,0
			C-846.4-1726.7-847-1726.2-847.2-1725L-847.2-1725z"/>
		<path id="Trazado_3049" class="st1" d="M-833.5-1725.2v4.7h-2.1v-4.3c0-1.3-0.5-1.9-1.4-1.9s-1.4,0.6-1.4,1.9v4.2h-2.1v-7.4h2.1
			v1.5c0.3-1,1.3-1.7,2.4-1.7C-834.3-1728.1-833.5-1726.9-833.5-1725.2z"/>
		<path id="Trazado_3050" class="st1" d="M-827.4-1722.1v1.5h-1.2c-1.5,0-2.6-0.7-2.6-2.2v-3.7h-1.4v-1.5h1.4v-1.8h2.1v1.8h1.6v1.5
			h-1.6v3.5c0,0.6,0.3,0.8,0.9,0.8L-827.4-1722.1z"/>
		<path id="Trazado_3051" class="st1" d="M-826.6-1722.8h2.1c0.2,0.7,0.8,1.1,1.4,1c0.9,0,1.4-0.3,1.4-0.8c0-0.5-0.3-0.7-1.3-0.9
			l-1.3-0.3c-1.4-0.3-2.2-1-2.2-2.1c0-1.4,1.5-2.3,3.2-2.3c1.7,0,3.1,0.7,3.4,2.1h-2.1c-0.2-0.5-0.8-0.8-1.3-0.7
			c-0.7,0-1.2,0.2-1.2,0.7c0,0.4,0.4,0.6,1.2,0.8l1.3,0.3c1.6,0.3,2.3,1,2.3,2.2c0,1.5-1.5,2.4-3.5,2.4
			C-825-1720.4-826.3-1721.1-826.6-1722.8z"/>
		<path id="Trazado_3052" class="st1" d="M-917.1-1714.5c2.7,0,4.2,1.3,4.2,3.4s-1.5,3.4-4.2,3.4h-1.9v3.6h-2.2v-10.4H-917.1z
			 M-917-1709.5c1.3,0,2-0.6,2-1.6s-0.7-1.6-2-1.6h-2v3.2L-917-1709.5z"/>
		<path id="Trazado_3053" class="st1" d="M-909.5-1709.6c0.2-1.2,1.2-2.1,2.5-2.1v2.1h-0.5c-1.3,0-1.9,0.4-1.9,1.7v3.9h-2.1v-7.4
			h2.1V-1709.6z"/>
		<path id="Trazado_3054" class="st1" d="M-906.3-1707.8c0-2.1,1.7-3.9,3.9-3.9s3.9,1.7,3.9,3.9c0,2.1-1.7,3.9-3.9,3.9
			c-2,0.1-3.8-1.4-3.9-3.4C-906.3-1707.5-906.3-1707.6-906.3-1707.8z M-900.7-1707.8c0-1.5-0.6-2.5-1.7-2.5s-1.7,0.9-1.7,2.5
			s0.6,2.5,1.7,2.5S-900.7-1706.3-900.7-1707.8z"/>
		<path id="Trazado_3055" class="st1" d="M-893.5-1713c-0.6,0-0.9,0.2-0.9,0.9v0.6h1.7v1.5h-1.7v5.9h-2.1v-5.9h-1.3v-1.5h1.3v-0.7
			c0-1.5,1.1-2.2,2.6-2.2h1.2v1.5L-893.5-1713z"/>
		<path id="Trazado_3056" class="st1" d="M-884.5-1707.2h-5.4c0.2,1.2,0.8,1.8,1.7,1.8c0.6,0.1,1.3-0.3,1.5-0.9h2.1
			c-0.5,1.5-2,2.5-3.6,2.4c-2.1,0.1-3.9-1.6-4-3.8c-0.1-2.1,1.6-3.9,3.8-4c2.1-0.1,3.9,1.6,4,3.8c0,0.1,0,0.1,0,0.2
			C-884.5-1707.6-884.5-1707.4-884.5-1707.2z M-889.9-1708.6h3.3c0-0.9-0.7-1.7-1.6-1.7c0,0,0,0,0,0
			C-889.1-1710.3-889.7-1709.7-889.9-1708.6L-889.9-1708.6z"/>
		<path id="Trazado_3057" class="st1" d="M-883.6-1706.3h2.1c0.2,0.7,0.8,1.1,1.4,1c0.9,0,1.4-0.3,1.4-0.8c0-0.5-0.3-0.7-1.3-0.9
			l-1.3-0.3c-1.4-0.3-2.2-1-2.2-2.1c0-1.4,1.5-2.3,3.2-2.3c1.7,0,3.1,0.7,3.4,2.1h-2.1c-0.2-0.5-0.8-0.8-1.3-0.7
			c-0.7,0-1.2,0.2-1.2,0.7c0,0.4,0.4,0.6,1.2,0.8l1.3,0.3c1.6,0.3,2.3,1,2.3,2.2c0,1.5-1.5,2.4-3.5,2.4
			C-882-1703.9-883.3-1704.7-883.6-1706.3z"/>
		<path id="Trazado_3058" class="st1" d="M-875.8-1706.3h2.1c0.1,0.7,0.8,1.1,1.4,1c0.9,0,1.4-0.3,1.4-0.8c0-0.5-0.3-0.7-1.3-0.9
			l-1.3-0.3c-1.4-0.3-2.2-1-2.2-2.1c0-1.4,1.5-2.3,3.2-2.3c1.7,0,3.1,0.7,3.4,2.1h-2.1c-0.2-0.5-0.8-0.8-1.3-0.7
			c-0.7,0-1.2,0.2-1.2,0.7c0,0.4,0.4,0.6,1.2,0.8l1.3,0.3c1.6,0.3,2.3,1,2.3,2.2c0,1.5-1.5,2.4-3.5,2.4
			C-874.1-1703.9-875.5-1704.7-875.8-1706.3z"/>
		<path id="Trazado_3059" class="st1" d="M-867.5-1712.5v-2h2.2v2L-867.5-1712.5z M-867.5-1704.1v-7.4h2.1v7.4H-867.5z"/>
		<path id="Trazado_3060" class="st1" d="M-864-1707.8c0-2.1,1.7-3.9,3.9-3.9s3.9,1.7,3.9,3.9c0,2.1-1.7,3.9-3.9,3.9
			c-2,0.1-3.8-1.4-3.9-3.4C-864-1707.5-864-1707.6-864-1707.8z M-858.4-1707.8c0-1.5-0.6-2.5-1.7-2.5s-1.7,0.9-1.7,2.5
			s0.6,2.5,1.7,2.5S-858.4-1706.3-858.4-1707.8z"/>
		<path id="Trazado_3061" class="st1" d="M-847.9-1708.8v4.7h-2.1v-4.3c0-1.3-0.5-1.9-1.4-1.9s-1.4,0.6-1.4,1.9v4.2h-2.1v-7.4h2.1
			v1.5c0.3-1,1.3-1.7,2.4-1.7C-848.7-1711.7-847.9-1710.4-847.9-1708.8z"/>
		<path id="Trazado_3062" class="st1" d="M-839.5-1708.8v4.7h-2.1v-1.4c-0.4,1-1.4,1.6-2.5,1.6c-1.3,0.1-2.5-0.9-2.6-2.3
			c0,0,0-0.1,0-0.1c0-1.7,1.6-2.1,3.1-2.3l2-0.2v-0.1c0-0.8-0.6-1.4-1.4-1.3c-0.6,0-1.1,0.4-1.3,1h-2.1c0.2-1.5,1.6-2.4,3.5-2.4
			C-840.6-1711.7-839.5-1710.4-839.5-1708.8z M-841.6-1707.2v-0.3l-1.2,0.1c-0.8,0.1-1.7,0.2-1.7,1.1c0,0.6,0.5,1.2,1.2,1.2
			c0,0,0.1,0,0.1,0C-842.1-1705.2-841.6-1706.1-841.6-1707.2L-841.6-1707.2z"/>
		<path id="Trazado_3063" class="st1" d="M-837.8-1704.1v-10.4h2.1v10.4L-837.8-1704.1z"/>
		<path id="Trazado_3064" class="st1" d="M-834-1712.5v-2h2.2v2L-834-1712.5z M-833.9-1704.1v-7.4h2.1v7.4H-833.9z"/>
		<path id="Trazado_3065" class="st1" d="M-825.6-1705.6v1.5h-1.2c-1.5,0-2.6-0.7-2.6-2.2v-3.7h-1.4v-1.5h1.4v-1.8h2.1v1.8h1.6v1.5
			h-1.6v3.5c0,0.6,0.3,0.8,0.9,0.8L-825.6-1705.6z"/>
		<path id="Trazado_3066" class="st1" d="M-822.3-1705.6h4.3v1.5h-6.7v-2l4-3.9h-4v-1.5h6.3v2L-822.3-1705.6z"/>
		<path id="Trazado_3067" class="st1" d="M-810-1708.8v4.7h-2.1v-1.4c-0.4,1-1.4,1.6-2.5,1.6c-1.3,0.1-2.5-0.9-2.6-2.3
			c0,0,0-0.1,0-0.1c0-1.7,1.6-2.1,3.1-2.3l2-0.2v-0.1c0-0.8-0.6-1.4-1.4-1.3c-0.6,0-1.1,0.4-1.3,1h-2.1c0.2-1.5,1.6-2.4,3.5-2.4
			C-811.1-1711.7-810-1710.4-810-1708.8z M-812.1-1707.2v-0.3l-1.2,0.1c-0.9,0.1-1.7,0.2-1.7,1.1c0,0.6,0.5,1.2,1.2,1.2
			c0,0,0.1,0,0.1,0C-812.6-1705.2-812.1-1706.1-812.1-1707.2L-812.1-1707.2z"/>
		<path id="Trazado_3068" class="st1" d="M-803.1-1714.5h2.1v10.4h-2.1v-1.5c-0.4,1-1.4,1.7-2.5,1.7c-1.8,0-3.1-1.6-3.1-3.9
			s1.2-3.9,3.1-3.9c1.1,0,2.2,0.8,2.5,1.9V-1714.5z M-803.1-1707.8c0-1.5-0.6-2.5-1.8-2.5s-1.7,0.9-1.7,2.5c0,1.5,0.6,2.5,1.7,2.5
			S-803.1-1706.3-803.1-1707.8L-803.1-1707.8z"/>
		<path id="Trazado_3069" class="st1" d="M-799.7-1707.8c0-2.1,1.7-3.9,3.9-3.9s3.9,1.7,3.9,3.9c0,2.1-1.7,3.9-3.9,3.9
			c-2,0.1-3.8-1.4-3.9-3.4C-799.7-1707.5-799.7-1707.6-799.7-1707.8z M-794.1-1707.8c0-1.5-0.6-2.5-1.7-2.5s-1.7,0.9-1.7,2.5
			s0.6,2.5,1.7,2.5S-794.1-1706.3-794.1-1707.8z"/>
		<path id="Trazado_3070" class="st1" d="M-788.5-1709.6c0.2-1.2,1.2-2.1,2.5-2.1v2.1h-0.5c-1.3,0-1.9,0.4-1.9,1.7v3.9h-2.1v-7.4
			h2.1V-1709.6z"/>
		<path id="Trazado_3071" class="st1" d="M-785.4-1706.3h2.1c0.2,0.7,0.8,1.1,1.4,1c0.9,0,1.4-0.3,1.4-0.8c0-0.5-0.3-0.7-1.3-0.9
			l-1.3-0.3c-1.4-0.3-2.2-1-2.2-2.1c0-1.4,1.5-2.3,3.2-2.3c1.7,0,3.1,0.7,3.4,2.1h-2.1c-0.2-0.5-0.8-0.8-1.3-0.7
			c-0.7,0-1.2,0.2-1.2,0.7c0,0.4,0.4,0.6,1.2,0.8l1.3,0.3c1.6,0.3,2.3,1,2.3,2.2c0,1.5-1.5,2.4-3.5,2.4
			C-783.7-1703.9-785.1-1704.7-785.4-1706.3z"/>
	</g>
</g>
</svg>
